<svg xmlns="http://www.w3.org/2000/svg" xmlns:xlink="http://www.w3.org/1999/xlink" viewBox="0 0 231 205">
    <defs>
        <linearGradient id="a" x1="361.38" y1="408.26" x2="471.98" y2="295.44"
            gradientTransform="translate(385.12 -157.77) rotate(45)" gradientUnits="userSpaceOnUse">
            <stop offset="0" stop-color="#4181f1" />
            <stop offset="0.12" stop-color="#3c95f1" />
            <stop offset="0.27" stop-color="#38a4f1" />
            <stop offset="0.44" stop-color="#36acf1" />
            <stop offset="0.7" stop-color="#35aff1" />
        </linearGradient>
        <linearGradient id="b" x1="440.09" y1="530.47" x2="323.18" y2="407.68" gradientUnits="userSpaceOnUse">
            <stop offset="0" stop-color="#4181f1" />
            <stop offset="0.04" stop-color="#4083f1" />
            <stop offset="0.66" stop-color="#38a3f1" />
            <stop offset="1" stop-color="#35aff1" />
        </linearGradient>
        <linearGradient id="c" x1="488.84" y1="453.98" x2="340.01" y2="493.86"
            gradientTransform="matrix(1, 0, 0, 1, 0, 0)" xlink:href="#a" />
        <linearGradient id="d" x1="431.58" y1="363.4" x2="524.45" y2="451.96" gradientUnits="userSpaceOnUse">
            <stop offset="0" stop-color="#4181f1" />
            <stop offset="0.03" stop-color="#4083f1" />
            <stop offset="0.53" stop-color="#38a3f1" />
            <stop offset="0.8" stop-color="#35aff1" />
        </linearGradient>
    </defs>
    <title>logo</title>
    <g style="isolation:isolate">
        <path
            d="M321.29,356H413a60,60,0,0,1,60,60v0a0,0,0,0,1,0,0H293a0,0,0,0,1,0,0V384.29A28.29,28.29,0,0,1,321.29,356Z"
            transform="translate(-470.63 57.88) rotate(-45)" style="fill:url(#a)" />
        <path
            d="M467.85,513.43a59.7,59.7,0,0,1-30.59,16.39,57.9,57.9,0,0,1-9.08,1.11,55.84,55.84,0,0,1-5.64,0A59.83,59.83,0,0,1,383,513.43l-.06-.06-64.79-64.79a28.1,28.1,0,0,1-8.26-18.8c0-.86,0-1.71,0-2.56a28.23,28.23,0,0,1,8.26-18.65l22.42-22.42,42.35,42.35Z"
            transform="translate(-309.86 -326)" style="fill:url(#b)" />
        <path
            d="M540.83,429.78a28.1,28.1,0,0,1-8.26,18.8l-15.94,15.94-48.84,48.85-.07.06a59.68,59.68,0,0,1-30.48,16.37,58.89,58.89,0,0,1-9.06,1.13,55.84,55.84,0,0,1-5.64,0,59.73,59.73,0,0,1-39.67-17.5l.07-.06,26.64-26.65L510.15,386.15l22.42,22.42a28.23,28.23,0,0,1,8.26,18.65C540.87,428.08,540.87,428.93,540.83,429.78Z"
            transform="translate(-309.86 -326)" style="fill:url(#c)" />
        <path
            d="M532.57,408.42l-64.78-64.78L412,399l60.44,34.15,37.71,37.7,22.42-22.42A28.29,28.29,0,0,0,532.57,408.42Z"
            transform="translate(-309.86 -326)" style="fill:url(#d)" />
        <path
            d="M428.78,479.21a14.43,14.43,0,0,1-10.07-4.06l-4.85-4.66c-2.15-2.07-4.52-4.23-7-6.52C393,451.35,375.78,435.65,375,416a27.43,27.43,0,0,1,7.51-20.26A29.8,29.8,0,0,1,404,387h.41c10.42.14,16.42,4.22,21.36,8.61a4.24,4.24,0,0,0,2.86,1.07,4.58,4.58,0,0,0,3.15-1.25c3.88-3.65,9-7.51,17.44-8.49a30.33,30.33,0,0,1,3.43-.19,31.73,31.73,0,0,1,26.78,15,28.27,28.27,0,0,1,1.12,28.07C478,435,473.18,441,465.5,449c-4.24,4.39-8.77,8.72-12.76,12.55-2.32,2.22-4.51,4.31-6.37,6.16L439,475A14.44,14.44,0,0,1,428.78,479.21Z"
            transform="translate(-309.86 -326)" style="fill:#f15a24;fill-rule:evenodd" />
        <path
            d="M452.61,391.74c17.44,0,32.35,18.05,23.44,35.84-2.68,5.34-8.12,11.69-14.15,17.93-6.61,6.84-13.92,13.54-19,18.63l-7.37,7.31a9.52,9.52,0,0,1-13.3.1l-4.85-4.67C403.44,453.5,380.82,436.66,380,415.8,379.51,401.31,390.84,392,404,392h.35c8.3.11,13.24,3,18.1,7.35a9.29,9.29,0,0,0,6.18,2.33,9.6,9.6,0,0,0,6.58-2.61c3.91-3.68,8.09-6.41,14.58-7.16a25.05,25.05,0,0,1,2.86-.16m0-10a35.44,35.44,0,0,0-4,.22,33.89,33.89,0,0,0-20,9.53c-5.35-4.67-12.42-9.34-24.18-9.5H404a34.84,34.84,0,0,0-25,10.28A32.39,32.39,0,0,0,370,416.14c.84,21.79,18.92,38.28,33.45,51.52,2.48,2.27,4.82,4.41,6.92,6.43l4.85,4.66a19.51,19.51,0,0,0,27.28-.2l7.37-7.31c1.84-1.82,4-3.91,6.32-6.11,4-3.86,8.58-8.23,12.88-12.68,8-8.31,13.09-14.8,15.9-20.39a33.22,33.22,0,0,0-1.35-32.94,36.75,36.75,0,0,0-31-17.38Z"
            transform="translate(-309.86 -326)" style="fill:#fff" />
    </g>
</svg>